<svg width="50" height="50" viewBox="0 0 50 50" fill="none" xmlns="http://www.w3.org/2000/svg">
<g filter="url(#filter0_d_32_81)">
<path d="M24.9998 45.8333C22.1526 45.8333 19.4616 45.2861 16.9269 44.1916C14.3922 43.0986 12.179 41.6055 10.2873 39.7125C8.39428 37.8208 6.90123 35.6076 5.80817 33.0729C4.71373 30.5382 4.1665 27.8472 4.1665 25C4.1665 22.118 4.71373 19.4187 5.80817 16.902C6.90123 14.384 8.39428 12.1791 10.2873 10.2875C12.179 8.3944 14.3922 6.90065 16.9269 5.80621C19.4616 4.71315 22.1526 4.16663 24.9998 4.16663C27.8818 4.16663 30.5811 4.71315 33.0978 5.80621C35.6158 6.90065 37.8207 8.3944 39.7123 10.2875C41.6054 12.1791 43.0985 14.384 44.1915 16.902C45.286 19.4187 45.8332 22.118 45.8332 25V28.0208C45.8332 30.0694 45.1304 31.8139 43.7248 33.2541C42.3179 34.6958 40.5901 35.4166 38.5415 35.4166C37.2915 35.4166 36.1283 35.1389 35.0519 34.5833C33.9755 34.0277 33.0901 33.2986 32.3957 32.3958C31.4582 33.3333 30.3561 34.0715 29.0894 34.6104C27.8214 35.1479 26.4582 35.4166 24.9998 35.4166C22.1179 35.4166 19.6616 34.4007 17.6311 32.3687C15.5991 30.3382 14.5832 27.8819 14.5832 25C14.5832 22.118 15.5991 19.6611 17.6311 17.6291C19.6616 15.5986 22.1179 14.5833 24.9998 14.5833C27.8818 14.5833 30.3387 15.5986 32.3707 17.6291C34.4012 19.6611 35.4165 22.118 35.4165 25V28.0208C35.4165 29.0277 35.729 29.8173 36.354 30.3895C36.979 30.9632 37.7082 31.25 38.5415 31.25C39.3748 31.25 40.104 30.9632 40.729 30.3895C41.354 29.8173 41.6665 29.0277 41.6665 28.0208V25C41.6665 20.4513 40.0255 16.5361 36.7436 13.2541C33.463 9.97357 29.5485 8.33329 24.9998 8.33329C20.4512 8.33329 16.5359 9.97357 13.254 13.2541C9.97345 16.5361 8.33317 20.4513 8.33317 25C8.33317 29.5486 9.97345 33.4632 13.254 36.7437C16.5359 40.0257 20.4512 41.6666 24.9998 41.6666H35.4165V45.8333H24.9998ZM24.9998 31.25C26.736 31.25 28.2116 30.6423 29.4269 29.427C30.6422 28.2118 31.2498 26.7361 31.2498 25C31.2498 23.2638 30.6422 21.7882 29.4269 20.5729C28.2116 19.3576 26.736 18.75 24.9998 18.75C23.2637 18.75 21.788 19.3576 20.5728 20.5729C19.3575 21.7882 18.7498 23.2638 18.7498 25C18.7498 26.7361 19.3575 28.2118 20.5728 29.427C21.788 30.6423 23.2637 31.25 24.9998 31.25Z" fill="#F4B922"/>
</g>
<defs>
<filter id="filter0_d_32_81" x="-5.8335" y="-3.83337" width="61.6665" height="61.6666" filterUnits="userSpaceOnUse" color-interpolation-filters="sRGB">
<feFlood flood-opacity="0" result="BackgroundImageFix"/>
<feColorMatrix in="SourceAlpha" type="matrix" values="0 0 0 0 0 0 0 0 0 0 0 0 0 0 0 0 0 0 127 0" result="hardAlpha"/>
<feOffset dy="2"/>
<feGaussianBlur stdDeviation="5"/>
<feComposite in2="hardAlpha" operator="out"/>
<feColorMatrix type="matrix" values="0 0 0 0 0 0 0 0 0 0 0 0 0 0 0 0 0 0 0.15 0"/>
<feBlend mode="normal" in2="BackgroundImageFix" result="effect1_dropShadow_32_81"/>
<feBlend mode="normal" in="SourceGraphic" in2="effect1_dropShadow_32_81" result="shape"/>
</filter>
</defs>
</svg>
