<svg width="37" height="37" viewBox="0 0 37 37" fill="none" xmlns="http://www.w3.org/2000/svg">
<path d="M18.5 0C16.0705 0 13.6649 0.490397 11.4204 1.44319C9.17583 2.39598 7.13641 3.79252 5.41852 5.55305C1.9491 9.10861 0 13.931 0 18.9593C0 27.3393 5.3095 34.449 12.654 36.9706C13.579 37.1223 13.875 36.5346 13.875 36.0227V32.8185C8.7505 33.9561 7.659 30.278 7.659 30.278C6.808 28.0787 5.6055 27.491 5.6055 27.491C3.922 26.3155 5.735 26.3534 5.735 26.3534C7.585 26.4861 8.5655 28.3062 8.5655 28.3062C10.175 31.188 12.8945 30.3349 13.949 29.8799C14.1155 28.6475 14.5965 27.8133 15.1145 27.3393C11.0075 26.8653 6.697 25.2348 6.697 18.0113C6.697 15.9069 7.4 14.2195 8.6025 12.8734C8.4175 12.3994 7.77 10.4276 8.7875 7.86811C8.7875 7.86811 10.3415 7.35621 13.875 9.80196C15.3365 9.38485 16.9275 9.1763 18.5 9.1763C20.0725 9.1763 21.6635 9.38485 23.125 9.80196C26.6585 7.35621 28.2125 7.86811 28.2125 7.86811C29.23 10.4276 28.5825 12.3994 28.3975 12.8734C29.6 14.2195 30.303 15.9069 30.303 18.0113C30.303 25.2538 25.974 26.8464 21.8485 27.3204C22.5145 27.9081 23.125 29.0646 23.125 30.8278V36.0227C23.125 36.5346 23.421 37.1413 24.3645 36.9706C31.709 34.4301 37 27.3393 37 18.9593C37 16.4695 36.5215 14.0041 35.5918 11.7039C34.6621 9.40364 33.2994 7.31358 31.5815 5.55305C29.8636 3.79252 27.8242 2.39598 25.5796 1.44319C23.3351 0.490397 20.9295 0 18.5 0V0Z" fill="white"/>
</svg>
