<svg width="102" height="37" viewBox="0 0 102 37" fill="none" xmlns="http://www.w3.org/2000/svg">
<g clip-path="url(#clip0_32_120)">
<path d="M52.6606 12.2552L57.5134 11.9488C57.6241 12.7238 57.8271 13.3005 58.1592 13.715C58.6943 14.3638 59.4323 14.6882 60.4103 14.6882C61.1299 14.6882 61.7019 14.526 62.0894 14.1836C62.4584 13.9133 62.6798 13.4807 62.6798 13.0302C62.6798 12.5976 62.4768 12.1831 62.1263 11.9128C61.7572 11.5884 60.89 11.264 59.5246 10.9756C57.292 10.489 55.6867 9.84021 54.7457 9.01118C53.8046 8.23621 53.2695 7.1008 53.3064 5.8933C53.3064 5.06427 53.5648 4.23524 54.0445 3.55039C54.598 2.77542 55.3546 2.16266 56.2587 1.82024C57.2366 1.40572 58.602 1.18945 60.318 1.18945C62.4215 1.18945 64.0268 1.56792 65.1339 2.34289C66.241 3.09983 66.9052 4.32535 67.1082 6.00144L62.3108 6.27177C62.1816 5.55088 61.9233 5.02823 61.4989 4.6858C61.0745 4.34337 60.521 4.18117 59.8014 4.18117C59.2109 4.18117 58.7681 4.30733 58.4729 4.54162C58.1961 4.75789 58.0116 5.08229 58.03 5.44274C58.03 5.71308 58.1776 5.96539 58.3991 6.12759C58.6389 6.34386 59.2109 6.54211 60.115 6.72233C62.3477 7.19091 63.9345 7.6595 64.9124 8.1461C65.8904 8.63271 66.5915 9.22745 67.0159 9.93032C67.4588 10.6512 67.6802 11.4802 67.6617 12.3273C67.6617 13.3366 67.3665 14.3458 66.776 15.1929C66.1671 16.076 65.3184 16.7608 64.322 17.1753C63.2703 17.6259 61.9418 17.8602 60.3549 17.8602C57.5503 17.8602 55.6129 17.3375 54.5242 16.2742C53.4356 15.2109 52.7898 13.8772 52.6606 12.2552ZM1.16245 17.5898V1.47781H9.6686C11.237 1.47781 12.4548 1.60397 13.2851 1.8743C14.097 2.12662 14.8166 2.64927 15.2963 3.35214C15.8314 4.12711 16.0897 5.02823 16.0713 5.96539C16.1266 7.55136 15.2963 9.06524 13.8755 9.85823C13.322 10.1646 12.7131 10.3809 12.0857 10.489C12.547 10.6152 13.0083 10.8314 13.4143 11.0838C13.7279 11.3361 13.9863 11.6244 14.2261 11.9308C14.5029 12.2372 14.7428 12.5796 14.9457 12.9401L17.4182 17.6079H11.6245L8.89363 12.6517C8.54305 12.0209 8.24783 11.6064 7.97106 11.4082C7.60203 11.1558 7.15919 11.0297 6.71635 11.0297H6.27352V17.5718H1.16245V17.5898ZM6.27352 8.00192H8.43234C8.89363 7.96588 9.33647 7.89379 9.77931 7.78565C10.1114 7.73159 10.4067 7.55136 10.6096 7.28103C11.1078 6.63222 11.034 5.71308 10.4251 5.15438C10.093 4.88405 9.44718 4.73987 8.5246 4.73987H6.27352V8.00192ZM0 31.395L4.85275 31.0886C4.96346 31.8636 5.16643 32.4403 5.49855 32.8548C6.0152 33.5036 6.77171 33.8461 7.74964 33.8461C8.46925 33.8461 9.04124 33.6839 9.42873 33.3414C9.79776 33.0531 10.0192 32.6386 10.0192 32.188C10.0192 31.7555 9.81621 31.3409 9.46563 31.0706C9.0966 30.7462 8.22938 30.4218 6.84551 30.1334C4.61288 29.6468 3.0076 28.998 2.06657 28.169C1.12554 27.394 0.590449 26.2586 0.627352 25.0511C0.627352 24.2221 0.885673 23.3931 1.36541 22.7082C1.91896 21.9332 2.67547 21.3205 3.57959 20.9781C4.55753 20.5635 5.92294 20.3473 7.63893 20.3473C9.7424 20.3473 11.3477 20.7257 12.4548 21.5007C13.5619 22.2757 14.2077 23.4832 14.4106 25.1593L9.61324 25.4296C9.48408 24.7087 9.22576 24.186 8.80137 23.8436C8.39544 23.5012 7.82344 23.339 7.10383 23.357C6.51339 23.357 6.07055 23.4832 5.77533 23.7355C5.4801 23.9518 5.31404 24.2762 5.33249 24.6366C5.33249 24.9069 5.4801 25.1593 5.70152 25.3215C5.94139 25.5377 6.51339 25.736 7.41751 25.9162C9.65014 26.3848 11.237 26.8534 12.2149 27.34C13.1928 27.8266 13.894 28.4213 14.3184 29.1242C14.7612 29.8451 14.9826 30.6741 14.9826 31.5031C14.9826 32.5124 14.669 33.5036 14.097 34.3507C13.4881 35.2338 12.6393 35.9186 11.6429 36.3331C10.5912 36.7837 9.26266 37.018 7.67583 37.018C4.8712 37.018 2.93379 36.4953 1.84515 35.432C0.756512 34.3507 0.147612 33.017 0 31.395H0Z" fill="white"/>
<path d="M24.5404 30.1336L29.0057 31.4492C28.7658 32.5486 28.2676 33.5939 27.5849 34.513C26.9576 35.324 26.1273 35.9548 25.1862 36.3693C24.2268 36.7838 23.009 37.0001 21.5328 37.0001C19.743 37.0001 18.2669 36.7478 17.1414 36.2432C15.9974 35.7385 15.0195 34.8374 14.1891 33.5578C13.3588 32.2782 12.9529 30.6382 12.9529 28.6377C12.9529 25.9704 13.6725 23.9158 15.1302 22.4921C16.5878 21.0683 18.636 20.3474 21.293 20.3474C23.378 20.3474 25.0017 20.7619 26.2011 21.5729C27.382 22.402 28.2676 23.6635 28.8581 25.3576L24.3559 26.3309C24.2452 25.9524 24.0791 25.5739 23.8577 25.2495C23.581 24.871 23.2304 24.5827 22.806 24.3664C22.3816 24.1501 21.9019 24.06 21.4221 24.06C20.2597 24.06 19.374 24.5106 18.7651 25.4297C18.3038 26.0966 18.064 27.1599 18.064 28.6017C18.064 30.3859 18.3407 31.6114 18.8943 32.2782C19.4478 32.9451 20.2228 33.2695 21.2376 33.2695C22.2155 33.2695 22.9536 32.9991 23.4518 32.4765C23.95 31.9178 24.319 31.1428 24.5404 30.1336ZM34.9655 20.6177H40.0582V26.2588H45.6305V20.6177H50.76V36.7298H45.6305V30.2057H40.0582V36.7298H34.9655V20.6177V20.6177Z" fill="white"/>
<path d="M50.0591 28.6737C50.0591 26.0424 50.8156 23.9879 52.3102 22.5281C53.8047 21.0683 55.9082 20.3293 58.5837 20.3293C61.333 20.3293 63.4364 21.0502 64.931 22.492C66.4256 23.9338 67.1636 25.9523 67.1636 28.5476C67.1636 30.4399 66.8315 31.9718 66.1857 33.1793C65.5584 34.3688 64.5804 35.342 63.3811 35.9908C62.1448 36.6576 60.6134 37.0001 58.7867 37.0001C56.9231 37.0001 55.3916 36.7117 54.1738 36.135C52.9191 35.5222 51.8858 34.567 51.2031 33.3956C50.4466 32.134 50.0591 30.5661 50.0591 28.6737ZM55.1517 28.6917C55.1517 30.3138 55.4654 31.4852 56.0743 32.2061C56.6832 32.909 57.532 33.2694 58.6021 33.2694C59.6908 33.2694 60.5395 32.927 61.1484 32.2241C61.7573 31.5213 62.0526 30.2777 62.0526 28.4755C62.0526 26.9616 61.7389 25.8442 61.1115 25.1594C60.4842 24.4565 59.6354 24.1141 58.5652 24.1141C57.6242 24.078 56.7201 24.4745 56.0927 25.1774C55.4654 25.8802 55.1517 27.0517 55.1517 28.6917V28.6917ZM72.3854 28.6737C72.3854 26.0424 73.1419 23.9879 74.6365 22.5281C76.1311 21.0683 78.2346 20.3293 80.91 20.3293C83.6593 20.3293 85.7812 21.0502 87.2573 22.492C88.7335 23.9338 89.49 25.9523 89.49 28.5476C89.49 30.4399 89.1579 31.9718 88.5121 33.1793C87.8847 34.3688 86.9068 35.342 85.7074 35.9908C84.4712 36.6576 82.9397 37.0001 81.113 37.0001C79.2494 37.0001 77.7179 36.7117 76.5001 36.135C75.2454 35.5222 74.2121 34.567 73.5294 33.3956C72.7729 32.134 72.3854 30.5661 72.3854 28.6737V28.6737ZM77.478 28.6917C77.478 30.3138 77.7917 31.4852 78.4006 32.2061C79.0095 32.909 79.8583 33.2694 80.9285 33.2694C82.0171 33.2694 82.8659 32.927 83.4748 32.2241C84.0837 31.5213 84.3789 30.2777 84.3789 28.4755C84.3789 26.9616 84.0652 25.8442 83.4379 25.1594C82.8105 24.4565 81.9618 24.1141 80.8916 24.1141C79.9505 24.078 79.028 24.4745 78.4191 25.1774C77.7917 25.8802 77.478 27.0517 77.478 28.6917V28.6917Z" fill="white"/>
<path d="M88.9547 20.6177H94.0474V32.7648H102V36.7297H88.9363V20.6177H88.9547Z" fill="white"/>
<path d="M83.3415 19.6877C88.4687 15.9138 90.0497 9.51644 86.8728 5.3988C83.696 1.28116 76.9642 1.00249 71.837 4.77638C66.7099 8.55028 65.1288 14.9476 68.3057 19.0653C71.4825 23.1829 78.2143 23.4616 83.3415 19.6877Z" fill="white"/>
<path d="M83.3415 19.6879C88.4687 15.914 90.0497 9.51668 86.8728 5.39904C83.696 1.2814 76.9642 1.00274 71.837 4.77663C66.7099 8.55052 65.1288 14.9479 68.3057 19.0655C71.4825 23.1832 78.2143 23.4618 83.3415 19.6879Z" fill="white"/>
<path d="M83.3415 19.6879C88.4687 15.914 90.0497 9.51668 86.8728 5.39904C83.696 1.2814 76.9642 1.00274 71.837 4.77663C66.7099 8.55052 65.1288 14.9479 68.3057 19.0655C71.4825 23.1832 78.2143 23.4618 83.3415 19.6879Z" stroke="white" stroke-width="4" stroke-miterlimit="10"/>
<path d="M72.4038 11.0477L74.2489 9.78616L76.5184 12.9401C76.9059 13.4447 77.2012 13.9854 77.4226 14.5801C77.5517 15.0307 77.5148 15.5173 77.3303 15.9498C77.0904 16.4905 76.703 16.9411 76.1863 17.2655C75.5774 17.68 75.0608 17.9143 74.6179 17.9864C74.1936 18.0584 73.7507 17.9864 73.3448 17.8061C72.9019 17.5899 72.5145 17.2835 72.2192 16.887L73.8061 15.4452C73.9352 15.6434 74.1013 15.8237 74.2858 15.9678C74.415 16.058 74.5626 16.112 74.7286 16.112C74.8578 16.112 74.987 16.058 75.0792 15.9859C75.2637 15.8777 75.3929 15.6615 75.3744 15.4452C75.3191 15.1388 75.1899 14.8324 74.987 14.5981L72.4038 11.0477V11.0477ZM77.9392 13.0482L79.6183 11.7506C79.8028 11.9669 80.0427 12.1291 80.301 12.2192C80.67 12.3273 81.0575 12.2552 81.3712 12.0209C81.5926 11.8768 81.7771 11.6785 81.8509 11.4262C81.9616 11.1018 81.7771 10.7413 81.445 10.6332C81.3896 10.6152 81.3343 10.5972 81.2789 10.5972C81.0575 10.5791 80.67 10.6693 80.098 10.9036C79.157 11.282 78.4189 11.4262 77.8654 11.3721C77.3303 11.3181 76.8321 11.0477 76.5369 10.5972C76.3155 10.2908 76.2048 9.93034 76.1863 9.56989C76.1863 9.15538 76.297 8.74086 76.5369 8.39844C76.8875 7.91183 77.3119 7.49732 77.8285 7.17291C78.6035 6.65026 79.2862 6.39795 79.8766 6.39795C80.4671 6.39795 81.0206 6.66829 81.5373 7.22698L79.8766 8.50657C79.5445 8.09206 78.9171 8.00194 78.4928 8.32635L78.4374 8.38041C78.2529 8.48855 78.1237 8.65075 78.0499 8.849C77.9946 8.99318 78.0315 9.15538 78.1237 9.28153C78.1975 9.37165 78.3082 9.44374 78.4374 9.44374C78.585 9.46176 78.8433 9.38967 79.2124 9.22747C80.1349 8.849 80.8361 8.63273 81.3158 8.56064C81.7218 8.48855 82.1462 8.52459 82.5336 8.68679C82.8842 8.83097 83.1794 9.08329 83.3824 9.38967C83.6407 9.75012 83.7883 10.1827 83.8068 10.6332C83.8252 11.1018 83.6961 11.5524 83.4378 11.9489C83.1056 12.4355 82.6812 12.85 82.1831 13.1744C81.1682 13.8592 80.3379 14.1476 79.6737 14.0394C78.954 13.9313 78.3636 13.5709 77.9392 13.0482V13.0482Z" fill="#1D262D"/>
</g>
<defs>
<clipPath id="clip0_32_120">
<rect width="102" height="37" fill="white"/>
</clipPath>
</defs>
</svg>
