<svg width="50" height="50" viewBox="0 0 50 50" fill="none" xmlns="http://www.w3.org/2000/svg">
<g filter="url(#filter0_d_32_77)">
<path d="M27.7293 42.5C24.9745 42.9303 22.157 42.704 19.5062 41.8396C16.8554 40.9752 14.4461 39.497 12.4746 37.5255C10.503 35.5539 9.02487 33.1447 8.16045 30.4939C7.29603 27.8431 7.06977 25.0256 7.50008 22.2708C6.41411 20.2052 6.01728 17.8464 6.3676 15.5392C6.71792 13.2319 7.79702 11.0972 9.44718 9.44706C11.0973 7.7969 13.232 6.7178 15.5393 6.36748C17.8465 6.01716 20.2053 6.41399 22.2709 7.49996C25.0257 7.06965 27.8432 7.29591 30.494 8.16033C33.1448 9.02475 35.554 10.5029 37.5256 12.4744C39.4972 14.446 40.9753 16.8552 41.8397 19.5061C42.7041 22.1569 42.9304 24.9743 42.5001 27.7291C43.5861 29.7947 43.9829 32.1535 43.6326 34.4608C43.2822 36.768 42.2031 38.9027 40.553 40.5529C38.9028 42.203 36.7681 43.2821 34.4609 43.6324C32.1537 43.9828 29.7949 43.5859 27.7293 42.5V42.5ZM25.1084 35.7416H25.0251C31.0084 35.7416 33.9897 32.8541 33.9897 28.9854C33.9897 26.4895 32.8417 23.8375 28.3105 22.8229L24.1792 21.9062C22.6063 21.5479 20.8001 21.0729 20.8001 19.5833C20.8001 18.0937 22.0918 17.0562 24.3918 17.0562C29.0376 17.0562 28.6147 20.2395 30.9147 20.2395C32.1147 20.2395 33.1917 19.527 33.1917 18.302C33.1917 15.4479 28.6147 13.302 24.7418 13.302C20.5313 13.302 16.048 15.0916 16.048 19.852C16.048 22.1395 16.8688 24.5812 21.3813 25.7125L26.9834 27.1104C28.6834 27.5312 29.1043 28.4833 29.1043 29.3437C29.1043 30.775 27.6792 32.1729 25.1084 32.1729C20.073 32.1729 20.7793 28.3041 18.0793 28.3041C16.8709 28.3041 15.9897 29.1333 15.9897 30.327C15.9897 32.6479 18.8063 35.7395 25.1084 35.7395V35.7416Z" fill="#34B6FF"/>
</g>
<defs>
<filter id="filter0_d_32_77" x="-3.75635" y="-1.75647" width="57.5127" height="57.5128" filterUnits="userSpaceOnUse" color-interpolation-filters="sRGB">
<feFlood flood-opacity="0" result="BackgroundImageFix"/>
<feColorMatrix in="SourceAlpha" type="matrix" values="0 0 0 0 0 0 0 0 0 0 0 0 0 0 0 0 0 0 127 0" result="hardAlpha"/>
<feOffset dy="2"/>
<feGaussianBlur stdDeviation="5"/>
<feComposite in2="hardAlpha" operator="out"/>
<feColorMatrix type="matrix" values="0 0 0 0 0 0 0 0 0 0 0 0 0 0 0 0 0 0 0.15 0"/>
<feBlend mode="normal" in2="BackgroundImageFix" result="effect1_dropShadow_32_77"/>
<feBlend mode="normal" in="SourceGraphic" in2="effect1_dropShadow_32_77" result="shape"/>
</filter>
</defs>
</svg>
