<svg width="50" height="50" viewBox="0 0 50 50" fill="none" xmlns="http://www.w3.org/2000/svg">
<g filter="url(#filter0_d_32_85)">
<path d="M4.17511 45.8333L6.99178 35.4833C5.13581 32.3017 4.16073 28.6833 4.16678 25C4.16678 13.4937 13.4939 4.16663 25.0001 4.16663C36.5064 4.16663 45.8334 13.4937 45.8334 25C45.8334 36.5062 36.5064 45.8333 25.0001 45.8333C21.3184 45.8392 17.7015 44.8649 14.5209 43.0104L4.17511 45.8333ZM17.4814 15.225C17.2123 15.2417 16.9494 15.3125 16.7084 15.4333C16.4824 15.5613 16.2761 15.7213 16.0959 15.9083C15.8459 16.1437 15.7043 16.3479 15.5522 16.5458C14.7822 17.5479 14.368 18.7779 14.3751 20.0416C14.3793 21.0625 14.6459 22.0562 15.0626 22.9854C15.9147 24.8645 17.3168 26.8541 19.1689 28.6979C19.6147 29.1416 20.0501 29.5875 20.5189 30.002C22.8176 32.0259 25.5569 33.4855 28.5189 34.2645L29.7043 34.4458C30.0897 34.4666 30.4751 34.4375 30.8626 34.4187C31.4694 34.3874 32.0618 34.2231 32.598 33.9375C32.8708 33.7969 33.1371 33.644 33.3959 33.4791C33.3959 33.4791 33.4855 33.4208 33.6564 33.2916C33.9376 33.0833 34.1105 32.9354 34.3439 32.6916C34.5168 32.5125 34.6668 32.302 34.7814 32.0625C34.9439 31.7229 35.1064 31.075 35.173 30.5354C35.223 30.1229 35.2084 29.8979 35.2022 29.7583C35.1939 29.5354 35.0084 29.3041 34.8064 29.2062L33.5939 28.6625C33.5939 28.6625 31.7814 27.8729 30.6751 27.3687C30.5585 27.3179 30.4335 27.2889 30.3064 27.2833C30.1638 27.2687 30.0198 27.2847 29.884 27.3303C29.7481 27.376 29.6236 27.4501 29.5189 27.5479V27.5437C29.5084 27.5437 29.3689 27.6625 27.8626 29.4875C27.7762 29.6036 27.6571 29.6914 27.5205 29.7397C27.384 29.7879 27.2362 29.7944 27.0959 29.7583C26.9602 29.722 26.8272 29.676 26.698 29.6208C26.4397 29.5125 26.3501 29.4708 26.173 29.3937L26.1626 29.3895C24.9708 28.8692 23.8672 28.1663 22.8918 27.3062C22.6293 27.077 22.3855 26.827 22.1355 26.5854C21.3159 25.8005 20.6016 24.9125 20.0105 23.9437L19.8876 23.7458C19.7993 23.6128 19.7279 23.4693 19.6751 23.3187C19.5959 23.0125 19.8022 22.7666 19.8022 22.7666C19.8022 22.7666 20.3084 22.2125 20.5439 21.9125C20.7399 21.6631 20.9228 21.4038 21.0918 21.1354C21.3376 20.7395 21.4147 20.3333 21.2855 20.0187C20.7022 18.5937 20.098 17.175 19.4772 15.7666C19.3543 15.4875 18.9897 15.2875 18.6584 15.2479C18.5459 15.2354 18.4334 15.2229 18.3209 15.2145C18.0412 15.2006 17.7608 15.2034 17.4814 15.2229V15.225Z" fill="#21CA1D"/>
</g>
<defs>
<filter id="filter0_d_32_85" x="-5.83325" y="-3.83337" width="61.6667" height="61.6667" filterUnits="userSpaceOnUse" color-interpolation-filters="sRGB">
<feFlood flood-opacity="0" result="BackgroundImageFix"/>
<feColorMatrix in="SourceAlpha" type="matrix" values="0 0 0 0 0 0 0 0 0 0 0 0 0 0 0 0 0 0 127 0" result="hardAlpha"/>
<feOffset dy="2"/>
<feGaussianBlur stdDeviation="5"/>
<feComposite in2="hardAlpha" operator="out"/>
<feColorMatrix type="matrix" values="0 0 0 0 0 0 0 0 0 0 0 0 0 0 0 0 0 0 0.15 0"/>
<feBlend mode="normal" in2="BackgroundImageFix" result="effect1_dropShadow_32_85"/>
<feBlend mode="normal" in="SourceGraphic" in2="effect1_dropShadow_32_85" result="shape"/>
</filter>
</defs>
</svg>
